<?xml version="1.0" encoding="UTF-8"?>
<!DOCTYPE svg PUBLIC "-//W3C//DTD SVG 1.1//EN" "http://www.w3.org/Graphics/SVG/1.1/DTD/svg11.dtd">
<svg xmlns="http://www.w3.org/2000/svg" version="1.1" width="200px" height="200px" style="shape-rendering:geometricPrecision; text-rendering:geometricPrecision; image-rendering:optimizeQuality; fill-rule:evenodd; clip-rule:evenodd" xmlns:xlink="http://www.w3.org/1999/xlink">
<g><path style="opacity:0" fill="#fdfcfc" d="M -0.5,-0.5 C 66.1667,-0.5 132.833,-0.5 199.5,-0.5C 199.5,66.1667 199.5,132.833 199.5,199.5C 132.833,199.5 66.1667,199.5 -0.5,199.5C -0.5,132.833 -0.5,66.1667 -0.5,-0.5 Z"/></g>
<g><path style="opacity:1" fill="#272727" d="M 107.5,17.5 C 108.5,17.5 109.5,17.5 110.5,17.5C 110.5,18.5 110.5,19.5 110.5,20.5C 109.5,20.5 108.5,20.5 107.5,20.5C 107.5,19.5 107.5,18.5 107.5,17.5 Z"/></g>
<g><path style="opacity:1" fill="#111111" d="M 92.5,22.5 C 94.674,22.9202 96.674,22.9202 98.5,22.5C 99.8333,27.1667 99.8333,31.8333 98.5,36.5C 96.7219,36.4307 94.8886,36.0974 93,35.5C 91.5363,31.1409 91.3696,26.8075 92.5,22.5 Z"/></g>
<g><path style="opacity:1" fill="#111111" d="M 106.5,23.5 C 107.675,23.281 108.675,23.6143 109.5,24.5C 108.868,28.5953 107.868,32.5953 106.5,36.5C 106.064,32.2444 106.064,27.911 106.5,23.5 Z"/></g>
<g><path style="opacity:1" fill="#444444" d="M 94.5,24.5 C 95.5,24.5 96.5,24.5 97.5,24.5C 97.5,27.8333 97.5,31.1667 97.5,34.5C 96.5,34.5 95.5,34.5 94.5,34.5C 94.5,31.1667 94.5,27.8333 94.5,24.5 Z"/></g>
<g><path style="opacity:1" fill="#111111" d="M 83.5,23.5 C 84.4972,23.4701 85.1639,23.9701 85.5,25C 84.7039,26.0921 84.0372,27.2588 83.5,28.5C 84.8514,31.8418 85.1847,35.1751 84.5,38.5C 81.929,34.2205 80.5957,29.5539 80.5,24.5C 81.791,24.7373 82.791,24.404 83.5,23.5 Z"/></g>
<g><path style="opacity:1" fill="#111111" d="M 125.5,26.5 C 128.935,28.6443 128.935,30.6443 125.5,32.5C 123.379,35.1627 122.713,37.996 123.5,41C 121.393,41.8542 120.059,41.1875 119.5,39C 120.697,36.1063 122.03,33.273 123.5,30.5C 123.291,29.914 122.957,29.414 122.5,29C 123.571,28.1482 124.571,27.3149 125.5,26.5 Z"/></g>
<g><path style="opacity:1" fill="#111111" d="M 70.5,28.5 C 72.0744,28.9371 73.2411,29.9371 74,31.5C 75.2467,34.3286 76.7467,36.9952 78.5,39.5C 76.2131,43.3823 73.3798,44.0489 70,41.5C 68.5,38.5 67,35.5 65.5,32.5C 65.8076,31.6919 66.3076,31.0253 67,30.5C 68.9312,34.0405 71.0979,37.3738 73.5,40.5C 73.8333,40 74.1667,39.5 74.5,39C 72.7302,35.6338 71.3969,32.1338 70.5,28.5 Z"/></g>
<g><path style="opacity:1" fill="#111111" d="M 133.5,34.5 C 136.585,34.542 138.919,35.8753 140.5,38.5C 138.157,42.3358 135.324,45.6691 132,48.5C 129.614,47.6147 128.114,45.948 127.5,43.5C 129.491,40.5065 131.491,37.5065 133.5,34.5 Z"/></g>
<g><path style="opacity:1" fill="#444444" d="M 134.5,36.5 C 135.995,36.4148 136.995,37.0815 137.5,38.5C 135.727,41.0599 133.727,43.3932 131.5,45.5C 130.692,45.1924 130.025,44.6924 129.5,44C 131.415,41.6004 133.081,39.1004 134.5,36.5 Z"/></g>
<g><path style="opacity:1" fill="#111111" d="M 56.5,38.5 C 60.8422,40.3281 64.5088,43.1614 67.5,47C 67,47.5 66.5,48 66,48.5C 63.2047,46.7068 60.7047,44.5402 58.5,42C 57.365,41.2506 56.365,41.4173 55.5,42.5C 58.0521,45.5488 60.7188,48.3821 63.5,51C 63.1501,52.2575 62.4835,52.5908 61.5,52C 59.2681,49.2651 56.6014,47.0984 53.5,45.5C 52.4173,46.365 52.2506,47.365 53,48.5C 55.7953,50.2932 58.2953,52.4598 60.5,55C 59.9747,55.6924 59.3081,56.1924 58.5,56.5C 55.0154,53.516 51.682,50.3493 48.5,47C 51.4847,44.3683 54.1514,41.535 56.5,38.5 Z"/></g>
<g><path style="opacity:1" fill="#111111" d="M 90.5,47.5 C 93.7973,47.3287 94.1306,47.9954 91.5,49.5C 92.186,51.0639 92.0194,52.7306 91,54.5C 90.5034,52.1902 90.3367,49.8568 90.5,47.5 Z"/></g>
<g><path style="opacity:1" fill="#111111" d="M 95.5,47.5 C 97.6477,47.3894 97.981,48.056 96.5,49.5C 97.9501,50.8498 98.6168,52.5165 98.5,54.5C 97.0222,54.762 95.6888,54.4287 94.5,53.5C 95.0253,52.8076 95.6919,52.3076 96.5,52C 94.4523,50.7741 94.119,49.2741 95.5,47.5 Z"/></g>
<g><path style="opacity:1" fill="#111111" d="M 99.5,48.5 C 100.601,47.4017 101.934,47.235 103.5,48C 102.887,50.1474 102.221,52.314 101.5,54.5C 100.831,52.3691 100.165,50.3691 99.5,48.5 Z"/></g>
<g><path style="opacity:1" fill="#111111" d="M 104.5,47.5 C 105.833,47.5 107.167,47.5 108.5,47.5C 108.5,49.8333 108.5,52.1667 108.5,54.5C 107.167,54.5 105.833,54.5 104.5,54.5C 104.5,52.1667 104.5,49.8333 104.5,47.5 Z"/></g>
<g><path style="opacity:1" fill="#444444" d="M 105.5,48.5 C 106.649,48.7911 107.316,49.6244 107.5,51C 107.167,51.8333 106.833,52.6667 106.5,53.5C 105.548,51.9547 105.215,50.288 105.5,48.5 Z"/></g>
<g><path style="opacity:1" fill="#111111" d="M 144.5,45.5 C 147.491,45.3297 149.491,46.663 150.5,49.5C 150.167,50.5 149.5,51.1667 148.5,51.5C 147.731,47.0002 146.064,46.5002 143.5,50C 146.336,53.4954 145.503,55.9954 141,57.5C 137.482,56.3705 136.315,54.2038 137.5,51C 139.944,50.6011 140.61,51.4345 139.5,53.5C 140.325,54.3857 141.325,54.719 142.5,54.5C 142.38,52.8014 142.046,51.1347 141.5,49.5C 141.787,47.5567 142.787,46.2233 144.5,45.5 Z"/></g>
<g><path style="opacity:1" fill="#111111" d="M 43.5,55.5 C 47.9485,56.89 51.9485,59.0567 55.5,62C 55.5218,66.3231 53.5218,67.9897 49.5,67C 46.2359,65.8811 43.5692,64.0478 41.5,61.5C 41.9766,59.4035 42.6433,57.4035 43.5,55.5 Z"/></g>
<g><path style="opacity:1" fill="#444444" d="M 43.5,59.5 C 46.4245,59.4598 49.0912,60.2932 51.5,62C 52.5171,63.0495 52.6838,64.2161 52,65.5C 49.6959,63.9315 47.1959,62.7648 44.5,62C 43.7476,61.3292 43.4142,60.4959 43.5,59.5 Z"/></g>
<g><path style="opacity:1" fill="#ea292b" d="M 122.5,81.5 C 116.07,76.5748 110.07,71.0748 104.5,65C 101.769,65.2212 99.1022,65.0545 96.5,64.5C 94.7338,65.0909 93.0672,65.9242 91.5,67C 86.9591,73.0418 81.6258,78.2084 75.5,82.5C 76.8498,68.3177 84.6831,60.651 99,59.5C 112.175,61.1759 120.008,68.5093 122.5,81.5 Z"/></g>
<g><path style="opacity:1" fill="#111111" d="M 157.5,55.5 C 159.942,55.3537 160.609,56.187 159.5,58C 156.382,59.0587 153.382,60.3921 150.5,62C 160.155,62.9316 160.488,63.9316 151.5,65C 144.575,72.2557 143.908,71.589 149.5,63C 147.744,62.8595 146.078,63.3595 144.5,64.5C 143.692,64.1924 143.025,63.6924 142.5,63C 147.561,60.4696 152.561,57.9696 157.5,55.5 Z"/></g>
<g><path style="opacity:1" fill="#111111" d="M 122.5,81.5 C 123.716,83.4509 125.382,84.9509 127.5,86C 132.167,88.6667 136.833,91.3333 141.5,94C 140.5,94.6667 139.5,94.6667 138.5,94C 132.974,91.0737 127.641,87.9071 122.5,84.5C 119.125,83.7552 115.792,82.7552 112.5,81.5C 111.548,83.0453 111.215,84.712 111.5,86.5C 108.123,86.3103 105.456,84.8103 103.5,82C 102.167,81.8333 100.833,81.6667 99.5,81.5C 94.9383,82.7685 90.605,84.4351 86.5,86.5C 86.5,85.1667 86.5,83.8333 86.5,82.5C 83.0901,82.4571 79.7568,82.9571 76.5,84C 75.944,84.3826 75.6107,84.8826 75.5,85.5C 70.5546,88.3095 65.5546,91.1428 60.5,94C 59.5,94.6667 58.5,94.6667 57.5,94C 63.7341,90.3918 69.7341,86.5585 75.5,82.5C 81.6258,78.2084 86.9591,73.0418 91.5,67C 93.0672,65.9242 94.7338,65.0909 96.5,64.5C 99.1022,65.0545 101.769,65.2212 104.5,65C 110.07,71.0748 116.07,76.5748 122.5,81.5 Z"/></g>
<g><path style="opacity:1" fill="#e31c24" d="M 94.5,66.5 C 97.8281,67.6463 101.161,67.8129 104.5,67C 108.132,71.6337 112.132,75.967 116.5,80C 114.527,80.4955 112.527,80.6621 110.5,80.5C 110.762,81.9778 110.429,83.3112 109.5,84.5C 102.8,77.9206 96.1335,77.9206 89.5,84.5C 88.5713,83.3112 88.238,81.9778 88.5,80.5C 86.4727,80.6621 84.4727,80.4955 82.5,80C 86.6249,75.5624 90.6249,71.0624 94.5,66.5 Z"/></g>
<g><path style="opacity:1" fill="#111111" d="M 34.5,69.5 C 36.3464,69.2222 37.6798,69.8888 38.5,71.5C 37.675,72.3857 36.675,72.719 35.5,72.5C 35.5,73.5 35.5,74.5 35.5,75.5C 37.288,75.7852 38.9547,75.4519 40.5,74.5C 40.9619,72.7094 42.1285,71.7094 44,71.5C 50.7736,70.9171 52.7736,73.5838 50,79.5C 48.6439,80.3802 47.1439,80.7135 45.5,80.5C 45.5,79.5 45.5,78.5 45.5,77.5C 46.5,77.5 47.5,77.5 48.5,77.5C 48.5,76.5 48.5,75.5 48.5,74.5C 46.5,74.5 44.5,74.5 42.5,74.5C 42.5,75.8333 42.5,77.1667 42.5,78.5C 34.4941,80.0609 31.8274,77.0609 34.5,69.5 Z"/></g>
<g><path style="opacity:1" fill="#111111" d="M 155.5,71.5 C 160.906,70.7353 162.906,73.0687 161.5,78.5C 158.795,78.6198 158.128,77.6198 159.5,75.5C 158.311,74.5713 156.978,74.238 155.5,74.5C 155.938,80.3133 153.438,81.98 148,79.5C 147.257,77.5594 147.424,75.7261 148.5,74C 149.332,73.3123 149.998,73.479 150.5,74.5C 149.754,75.7362 149.421,77.0695 149.5,78.5C 150.833,78.5 152.167,78.5 153.5,78.5C 153.185,75.7892 153.852,73.4559 155.5,71.5 Z"/></g>
<g><path style="opacity:1" fill="#e81f25" d="M 122.5,84.5 C 121.528,92.1131 118.194,98.4465 112.5,103.5C 107.483,98.4825 102.817,93.1492 98.5,87.5C 94.4884,92.8403 90.155,97.8403 85.5,102.5C 83.2843,101.797 81.451,100.464 80,98.5C 77.3979,94.5262 75.8979,90.1929 75.5,85.5C 75.6107,84.8826 75.944,84.3826 76.5,84C 79.7568,82.9571 83.0901,82.4571 86.5,82.5C 86.5,83.8333 86.5,85.1667 86.5,86.5C 90.605,84.4351 94.9383,82.7685 99.5,81.5C 100.833,81.6667 102.167,81.8333 103.5,82C 105.456,84.8103 108.123,86.3103 111.5,86.5C 111.215,84.712 111.548,83.0453 112.5,81.5C 115.792,82.7552 119.125,83.7552 122.5,84.5 Z"/></g>
<g><path style="opacity:1" fill="#111111" d="M 112.5,103.5 C 116.72,110.052 122.72,113.052 130.5,112.5C 130.338,110.473 130.505,108.473 131,106.5C 133.876,111.605 132.376,114.272 126.5,114.5C 123.567,114.534 120.9,113.701 118.5,112C 115.469,109.492 112.469,106.992 109.5,104.5C 105.85,99.8467 102.184,95.1801 98.5,90.5C 94.8096,95.1855 91.1429,99.8521 87.5,104.5C 82.8169,109.519 77.1502,112.852 70.5,114.5C 64.6173,114.19 63.1173,111.523 66,106.5C 66.0912,112.179 68.9246,114.012 74.5,112C 78.9494,109.716 82.616,106.549 85.5,102.5C 90.155,97.8403 94.4884,92.8403 98.5,87.5C 102.817,93.1492 107.483,98.4825 112.5,103.5 Z"/></g>
<g><path style="opacity:1" fill="#e92428" d="M 109.5,104.5 C 102.094,108.078 94.7609,108.078 87.5,104.5C 91.1429,99.8521 94.8096,95.1855 98.5,90.5C 102.184,95.1801 105.85,99.8467 109.5,104.5 Z"/></g>
<g><path style="opacity:1" fill="#111111" d="M 93.5,116.5 C 94.5,116.5 95.5,116.5 96.5,116.5C 96.5,117.5 96.5,118.5 96.5,119.5C 95.5,119.5 94.5,119.5 93.5,119.5C 93.5,118.5 93.5,117.5 93.5,116.5 Z"/></g>
<g><path style="opacity:1" fill="#111111" d="M 98.5,116.5 C 99.8333,116.5 101.167,116.5 102.5,116.5C 102.5,117.833 102.5,119.167 102.5,120.5C 101.167,120.5 99.8333,120.5 98.5,120.5C 98.5,119.167 98.5,117.833 98.5,116.5 Z"/></g>
<g><path style="opacity:1" fill="#111111" d="M 149.5,119.5 C 156.6,121.367 163.6,123.533 170.5,126C 171.406,127.699 171.739,129.533 171.5,131.5C 170.5,131.5 169.5,131.5 168.5,131.5C 168.762,130.022 168.429,128.689 167.5,127.5C 161.419,129.612 155.086,130.612 148.5,130.5C 148.5,129.5 148.5,128.5 148.5,127.5C 164.036,127.651 164.702,126.151 150.5,123C 149.663,121.989 149.33,120.822 149.5,119.5 Z"/></g>
<g><path style="opacity:1" fill="#111111" d="M 38.5,120.5 C 43.5111,120.334 48.5111,120.501 53.5,121C 54.6105,123.737 54.7772,126.571 54,129.5C 47.2723,131.534 40.439,132.2 33.5,131.5C 32.4252,128.562 32.2585,125.562 33,122.5C 34.9483,121.891 36.7816,121.224 38.5,120.5 Z"/></g>
<g><path style="opacity:1" fill="#444444" d="M 44.5,123.5 C 47.1667,123.5 49.8333,123.5 52.5,123.5C 52.5,124.833 52.5,126.167 52.5,127.5C 46.509,127.966 40.509,128.299 34.5,128.5C 34.5,127.167 34.5,125.833 34.5,124.5C 38.0419,124.813 41.3752,124.479 44.5,123.5 Z"/></g>
<g><path style="opacity:1" fill="#111111" d="M 147.5,133.5 C 152.869,135.347 158.036,137.68 163,140.5C 163.21,143.269 162.377,145.769 160.5,148C 154.921,147.583 149.754,145.75 145,142.5C 145.209,139.39 146.042,136.39 147.5,133.5 Z"/></g>
<g><path style="opacity:1" fill="#111111" d="M 71.5,119.5 C 72.4872,124.305 72.8205,129.305 72.5,134.5C 89.5,134.5 106.5,134.5 123.5,134.5C 124.167,114.5 124.833,114.5 125.5,134.5C 127.833,134.5 130.167,134.5 132.5,134.5C 132.5,135.5 132.5,136.5 132.5,137.5C 110.5,137.5 88.5,137.5 66.5,137.5C 66.5,136.5 66.5,135.5 66.5,134.5C 68.1667,134.5 69.8333,134.5 71.5,134.5C 71.5,129.5 71.5,124.5 71.5,119.5 Z"/></g>
<g><path style="opacity:1" fill="#111111" d="M 98.5,121.5 C 99.8333,121.5 101.167,121.5 102.5,121.5C 102.5,122.833 102.5,124.167 102.5,125.5C 101.167,125.5 99.8333,125.5 98.5,125.5C 98.5,124.167 98.5,122.833 98.5,121.5 Z"/></g>
<g><path style="opacity:1" fill="#111111" d="M 93.5,122.5 C 94.5,122.5 95.5,122.5 96.5,122.5C 96.5,123.5 96.5,124.5 96.5,125.5C 95.5,125.5 94.5,125.5 93.5,125.5C 93.5,124.5 93.5,123.5 93.5,122.5 Z"/></g>
<g><path style="opacity:1" fill="#111111" d="M 49.5,134.5 C 50.4959,134.414 51.3292,134.748 52,135.5C 53.7788,137.923 54.4455,140.59 54,143.5C 49.365,146.407 44.5316,148.573 39.5,150C 38.2888,149.107 38.2888,148.274 39.5,147.5C 43.8638,145.656 47.8638,143.323 51.5,140.5C 51.1667,139.5 50.5,138.833 49.5,138.5C 45.5,140.5 41.5,142.5 37.5,144.5C 36.7132,143.758 36.0465,142.925 35.5,142C 40.3874,139.726 45.0541,137.226 49.5,134.5 Z"/></g>
<g><path style="opacity:1" fill="#444444" d="M 148.5,137.5 C 151.889,138.631 155.222,139.964 158.5,141.5C 159.745,142.955 159.578,144.289 158,145.5C 154.851,144.004 151.684,142.504 148.5,141C 147.316,139.855 147.316,138.688 148.5,137.5 Z"/></g>
<g><path style="opacity:1" fill="#111111" d="M 61.5,142.5 C 62.5,142.5 63.5,142.5 64.5,142.5C 64.6495,143.552 64.4828,144.552 64,145.5C 58.3504,150.315 52.8504,155.315 47.5,160.5C 45.8987,159.965 45.3987,158.965 46,157.5C 51.6699,152.996 56.8365,147.996 61.5,142.5 Z"/></g>
<g><path style="opacity:1" fill="#111111" d="M 143.5,143.5 C 147.058,148.262 150.391,153.262 153.5,158.5C 152.833,159.833 151.833,160.833 150.5,161.5C 147.241,158.952 144.074,156.286 141,153.5C 142.628,156.916 144.462,160.416 146.5,164C 146.07,165.434 145.236,166.601 144,167.5C 139.552,163.703 135.052,160.036 130.5,156.5C 130.808,155.692 131.308,155.025 132,154.5C 135.333,157.167 138.667,159.833 142,162.5C 141.176,159.199 139.51,156.199 137,153.5C 136.51,152.207 136.343,150.873 136.5,149.5C 140.897,150.695 144.73,153.028 148,156.5C 147.176,153.199 145.51,150.199 143,147.5C 142.421,146.072 142.588,144.738 143.5,143.5 Z"/></g>
<g><path style="opacity:1" fill="#111111" d="M 95.5,143.5 C 96.5,143.5 97.5,143.5 98.5,143.5C 98.6633,145.857 98.4966,148.19 98,150.5C 97.3333,142.5 96.6667,142.5 96,150.5C 95.5034,148.19 95.3367,145.857 95.5,143.5 Z"/></g>
<g><path style="opacity:1" fill="#111111" d="M 90.5,143.5 C 92.2517,143.418 93.2517,144.251 93.5,146C 92.3047,147.533 92.3047,149.033 93.5,150.5C 92.675,151.386 91.675,151.719 90.5,151.5C 91.8333,148.833 91.8333,146.167 90.5,143.5 Z"/></g>
<g><path style="opacity:1" fill="#111111" d="M 100.5,143.5 C 102.252,143.418 103.252,144.251 103.5,146C 102.305,147.533 102.305,149.033 103.5,150.5C 102.675,151.386 101.675,151.719 100.5,151.5C 101.833,148.833 101.833,146.167 100.5,143.5 Z"/></g>
<g><path style="opacity:1" fill="#111111" d="M 105.5,143.5 C 107.89,143.685 108.89,145.018 108.5,147.5C 108.407,151.551 107.074,152.218 104.5,149.5C 107.058,147.88 107.058,146.38 104.5,145C 105.056,144.617 105.389,144.117 105.5,143.5 Z"/></g>
<g><path style="opacity:1" fill="#111111" d="M 62.5,151.5 C 63.6431,151.908 64.6431,152.575 65.5,153.5C 63.2017,156.891 62.0351,160.558 62,164.5C 64.6884,161.812 67.3551,159.145 70,156.5C 71.0588,156.63 71.8921,157.13 72.5,158C 67.2373,163.602 61.7373,168.768 56,173.5C 54.3783,173.046 53.2116,172.046 52.5,170.5C 54.2555,170.64 55.9222,170.14 57.5,169C 57.0426,168.586 56.7093,168.086 56.5,167.5C 58.7034,162.221 60.7034,156.887 62.5,151.5 Z"/></g>
<g><path style="opacity:1" fill="#111111" d="M 95.5,156.5 C 96.5,156.5 97.5,156.5 98.5,156.5C 98.5,158.833 98.5,161.167 98.5,163.5C 100.792,163.244 102.959,163.577 105,164.5C 105.499,169.823 105.666,175.156 105.5,180.5C 104.5,180.5 103.5,180.5 102.5,180.5C 102.666,175.821 102.499,171.155 102,166.5C 100.989,165.663 99.8221,165.33 98.5,165.5C 98.5,170.5 98.5,175.5 98.5,180.5C 97.5,180.5 96.5,180.5 95.5,180.5C 95.5,172.5 95.5,164.5 95.5,156.5 Z"/></g>
<g><path style="opacity:1" fill="#111111" d="M 85.5,158.5 C 86.5,158.5 87.5,158.5 88.5,158.5C 88.3285,160.492 88.9951,162.158 90.5,163.5C 89.0663,164.23 87.8996,165.23 87,166.5C 86.6076,169.188 86.1076,171.855 85.5,174.5C 85.722,176.055 86.3887,177.389 87.5,178.5C 84.1866,180.254 82.52,179.254 82.5,175.5C 83.0385,172.141 83.7052,168.807 84.5,165.5C 84.3201,164.446 83.9867,163.446 83.5,162.5C 84.8532,161.476 85.5198,160.143 85.5,158.5 Z"/></g>
<g><path style="opacity:1" fill="#111111" d="M 114.5,160.5 C 120.57,160.259 123.236,163.259 122.5,169.5C 120.194,169.993 117.861,170.326 115.5,170.5C 115.183,174.172 116.849,175.838 120.5,175.5C 120.5,174.5 120.5,173.5 120.5,172.5C 121.5,172.5 122.5,172.5 123.5,172.5C 123.66,176.771 121.493,178.771 117,178.5C 115.893,178.415 114.893,178.081 114,177.5C 112.756,173.356 111.589,169.189 110.5,165C 111.344,162.993 112.677,161.493 114.5,160.5 Z"/></g>
<g><path style="opacity:1" fill="#444444" d="M 114.5,163.5 C 115.833,163.5 117.167,163.5 118.5,163.5C 118.5,165.167 118.5,166.833 118.5,168.5C 117.167,168.5 115.833,168.5 114.5,168.5C 114.5,166.833 114.5,165.167 114.5,163.5 Z"/></g>
</svg>
